<svg xmlns="http://www.w3.org/2000/svg" viewBox="0 0 800 500" role="img" aria-label="Docker">
  <defs>
    <linearGradient id="g" x1="0" y1="0" x2="1" y2="1">
      <stop offset="0" stop-color="#6dd5fa"/>
      <stop offset="1" stop-color="#2980b9"/>
    </linearGradient>
    <filter id="shadow" x="-20%" y="-20%" width="140%" height="140%">
      <feDropShadow dx="0" dy="18" stdDeviation="16" flood-color="#1f5290" flood-opacity="0.18"/>
    </filter>
  </defs>
  <rect width="800" height="500" rx="42" fill="url(#g)"/>
  <circle cx="130" cy="94" r="70" fill="rgba(255,255,255,0.38)"/>
  <circle cx="700" cy="80" r="42" fill="rgba(255,255,255,0.24)"/>
  <circle cx="650" cy="420" r="110" fill="rgba(255,255,255,0.18)"/>
  <g filter="url(#shadow)" fill="white"><rect x="250" y="210" width="70" height="54" rx="8"/><rect x="330" y="210" width="70" height="54" rx="8"/><rect x="410" y="210" width="70" height="54" rx="8"/><rect x="330" y="146" width="70" height="54" rx="8"/><rect x="410" y="146" width="70" height="54" rx="8"/><path d="M205 285h360c-18 72-78 112-180 112-102 0-162-40-180-112z"/></g><circle cx="590" cy="245" r="34" fill="white" opacity="0.8"/>
  <text x="48" y="438" fill="white" font-family="Arial, sans-serif" font-size="42" font-weight="700">Docker</text>
</svg>
