<svg xmlns="http://www.w3.org/2000/svg" viewBox="0 0 800 500" role="img" aria-label="Мир">
  <defs>
    <linearGradient id="g" x1="0" y1="0" x2="1" y2="1">
      <stop offset="0" stop-color="#7f7fd5"/>
      <stop offset="1" stop-color="#86a8e7"/>
    </linearGradient>
    <filter id="shadow" x="-20%" y="-20%" width="140%" height="140%">
      <feDropShadow dx="0" dy="18" stdDeviation="16" flood-color="#1f5290" flood-opacity="0.18"/>
    </filter>
  </defs>
  <rect width="800" height="500" rx="42" fill="url(#g)"/>
  <circle cx="130" cy="94" r="70" fill="rgba(255,255,255,0.38)"/>
  <circle cx="700" cy="80" r="42" fill="rgba(255,255,255,0.24)"/>
  <circle cx="650" cy="420" r="110" fill="rgba(255,255,255,0.18)"/>
  <circle cx="400" cy="230" r="145" fill="white" filter="url(#shadow)"/><path d="M270 210c45 10 80-36 125-4 25 18 10 42 45 54 45 15 65-20 92 4" fill="none" stroke="#3bc9db" stroke-width="20" stroke-linecap="round"/><path d="M390 90c-45 60-50 220 0 285M410 90c45 60 50 220 0 285M255 230h290" fill="none" stroke="#bee3ff" stroke-width="12" stroke-linecap="round"/>
  <text x="48" y="438" fill="white" font-family="Arial, sans-serif" font-size="42" font-weight="700">Мир</text>
</svg>
